<svg width="16" height="19" viewBox="0 0 16 19" fill="none" xmlns="http://www.w3.org/2000/svg">
<path d="M0.763353 2.27759L10.7146 0.85655C10.7708 0.848494 10.828 0.852604 10.8824 0.868603C10.9369 0.884603 10.9872 0.912116 11.0301 0.94928C11.073 0.986444 11.1073 1.03239 11.1309 1.084C11.1545 1.13561 11.1667 1.19169 11.1666 1.24843V17.7515C11.1666 17.8082 11.1545 17.8642 11.131 17.9157C11.1074 17.9673 11.0731 18.0132 11.0304 18.0503C10.9876 18.0875 10.9373 18.115 10.883 18.1311C10.8286 18.1471 10.7715 18.1513 10.7154 18.1434L0.762561 16.7223C0.573843 16.6955 0.401159 16.6014 0.276231 16.4574C0.151304 16.3134 0.0825214 16.1292 0.0825195 15.9386V3.06134C0.0825214 2.87072 0.151304 2.6865 0.276231 2.54252C0.401159 2.39854 0.574634 2.30447 0.763353 2.27759ZM11.9583 2.37497H15.125C15.3349 2.37497 15.5363 2.45837 15.6848 2.60684C15.8332 2.75531 15.9166 2.95667 15.9166 3.16663V15.8333C15.9166 16.0433 15.8332 16.2446 15.6848 16.3931C15.5363 16.5416 15.3349 16.625 15.125 16.625H11.9583V2.37497ZM6.57498 9.49997L8.79165 6.3333H6.89165L5.62498 8.14305L4.35831 6.3333H2.45831L4.67498 9.49997L2.45831 12.6666H4.35831L5.62498 10.8569L6.89165 12.6666H8.79165L6.57498 9.49997Z" fill="#21A366"/>
</svg>
