<svg width="18" height="18" viewBox="0 0 18 18" fill="none" xmlns="http://www.w3.org/2000/svg">
<path d="M8.99996 13.1667C9.23607 13.1667 9.43412 13.0867 9.59412 12.9267C9.75357 12.7673 9.83329 12.5695 9.83329 12.3334V8.97925C9.83329 8.74314 9.75357 8.54869 9.59412 8.39591C9.43412 8.24314 9.23607 8.16675 8.99996 8.16675C8.76385 8.16675 8.56607 8.24647 8.40662 8.40591C8.24662 8.56591 8.16662 8.76397 8.16662 9.00008V12.3542C8.16662 12.5904 8.24662 12.7848 8.40662 12.9376C8.56607 13.0904 8.76385 13.1667 8.99996 13.1667ZM8.99996 6.50008C9.23607 6.50008 9.43412 6.42008 9.59412 6.26008C9.75357 6.10064 9.83329 5.90286 9.83329 5.66675C9.83329 5.43064 9.75357 5.23258 9.59412 5.07258C9.43412 4.91314 9.23607 4.83341 8.99996 4.83341C8.76385 4.83341 8.56607 4.91314 8.40662 5.07258C8.24662 5.23258 8.16662 5.43064 8.16662 5.66675C8.16662 5.90286 8.24662 6.10064 8.40662 6.26008C8.56607 6.42008 8.76385 6.50008 8.99996 6.50008ZM8.99996 17.3334C7.84718 17.3334 6.76385 17.1145 5.74996 16.6767C4.73607 16.2395 3.85413 15.6459 3.10413 14.8959C2.35413 14.1459 1.76051 13.264 1.32329 12.2501C0.885515 11.2362 0.666626 10.1529 0.666626 9.00008C0.666626 7.8473 0.885515 6.76397 1.32329 5.75008C1.76051 4.73619 2.35413 3.85425 3.10413 3.10425C3.85413 2.35425 4.73607 1.76036 5.74996 1.32258C6.76385 0.885359 7.84718 0.666748 8.99996 0.666748C10.1527 0.666748 11.2361 0.885359 12.25 1.32258C13.2638 1.76036 14.1458 2.35425 14.8958 3.10425C15.6458 3.85425 16.2394 4.73619 16.6766 5.75008C17.1144 6.76397 17.3333 7.8473 17.3333 9.00008C17.3333 10.1529 17.1144 11.2362 16.6766 12.2501C16.2394 13.264 15.6458 14.1459 14.8958 14.8959C14.1458 15.6459 13.2638 16.2395 12.25 16.6767C11.2361 17.1145 10.1527 17.3334 8.99996 17.3334ZM8.99996 15.6667C10.8472 15.6667 12.4202 15.0176 13.7191 13.7192C15.0175 12.4204 15.6666 10.8473 15.6666 9.00008C15.6666 7.15286 15.0175 5.5798 13.7191 4.28091C12.4202 2.98258 10.8472 2.33341 8.99996 2.33341C7.15274 2.33341 5.57996 2.98258 4.28163 4.28091C2.98274 5.5798 2.33329 7.15286 2.33329 9.00008C2.33329 10.8473 2.98274 12.4204 4.28163 13.7192C5.57996 15.0176 7.15274 15.6667 8.99996 15.6667Z" fill="#3B7DDD"/>
</svg>
