<svg width="192" height="29" viewBox="0 0 192 29" fill="none" xmlns="http://www.w3.org/2000/svg">
<path d="M42.1135 5.0105C43.3738 5.0105 44.468 5.2297 45.396 5.6681C46.3378 6.10651 47.058 6.73489 47.5566 7.55324C48.0552 8.3716 48.3045 9.34339 48.3045 10.4686C48.3045 11.5793 48.0552 12.551 47.5566 13.384C47.058 14.2024 46.3378 14.8307 45.396 15.2692C44.468 15.7076 43.3738 15.9268 42.1135 15.9268H38.8309V20.3546H36.1301V5.0105H42.1135ZM41.9888 13.5155C43.1661 13.5155 44.0594 13.2525 44.6688 12.7264C45.2782 12.2003 45.5829 11.4477 45.5829 10.4686C45.5829 9.48953 45.2782 8.73693 44.6688 8.21085C44.0594 7.68476 43.1661 7.42172 41.9888 7.42172H38.8309V13.5155H41.9888Z" fill="#273238"/>
<path d="M60.8294 14.5677C60.8294 14.7577 60.8155 15.028 60.7878 15.3788H52.0829C52.2353 16.2409 52.63 16.9278 53.2671 17.4393C53.9181 17.9361 54.7214 18.1845 55.677 18.1845C56.8959 18.1845 57.9 17.7607 58.6895 16.9132L60.0814 18.601C59.5828 19.2294 58.9526 19.7043 58.1909 20.0258C57.4291 20.3473 56.5704 20.5081 55.6147 20.5081C54.3959 20.5081 53.3225 20.2523 52.3945 19.7409C51.4666 19.2294 50.7463 18.5206 50.2339 17.6146C49.7353 16.694 49.486 15.6564 49.486 14.5019C49.486 13.3621 49.7283 12.3392 50.2131 11.4331C50.7117 10.5125 51.3973 9.79641 52.2699 9.28494C53.1424 8.77347 54.1258 8.51773 55.22 8.51773C56.3003 8.51773 57.2629 8.77347 58.1078 9.28494C58.9665 9.7818 59.6313 10.4905 60.1022 11.4112C60.587 12.3172 60.8294 13.3694 60.8294 14.5677ZM55.22 10.7098C54.389 10.7098 53.6826 10.9728 53.1009 11.4989C52.533 12.0103 52.1868 12.6972 52.0621 13.5594H58.3571C58.2463 12.7118 57.9069 12.025 57.3391 11.4989C56.7712 10.9728 56.0649 10.7098 55.22 10.7098Z" fill="#273238"/>
<path d="M69.1618 8.51773C70.2421 8.51773 71.2047 8.76616 72.0495 9.26302C72.9083 9.75988 73.58 10.4613 74.0648 11.3674C74.5495 12.2734 74.7919 13.3183 74.7919 14.5019C74.7919 15.6856 74.5495 16.7378 74.0648 17.6585C73.58 18.5645 72.9083 19.2659 72.0495 19.7628C71.2047 20.2597 70.2421 20.5081 69.1618 20.5081C67.6659 20.5081 66.4817 19.982 65.6092 18.9298V24.6072H63.0122V8.64925H65.4845V10.1837C65.9139 9.62835 66.4402 9.21187 67.0634 8.93421C67.7006 8.65656 68.4 8.51773 69.1618 8.51773ZM68.8709 18.1626C69.8266 18.1626 70.6091 17.8265 71.2185 17.1543C71.8418 16.4821 72.1534 15.598 72.1534 14.5019C72.1534 13.4059 71.8418 12.5218 71.2185 11.8496C70.6091 11.1774 69.8266 10.8413 68.8709 10.8413C68.2476 10.8413 67.6867 10.9947 67.1881 11.3016C66.6895 11.5939 66.2948 12.0177 66.0039 12.573C65.713 13.1283 65.5676 13.7713 65.5676 14.5019C65.5676 15.2326 65.713 15.8756 66.0039 16.4309C66.2948 16.9862 66.6895 17.4173 67.1881 17.7242C67.6867 18.0165 68.2476 18.1626 68.8709 18.1626Z" fill="#273238"/>
<path d="M83.0927 8.51773C84.173 8.51773 85.1356 8.76616 85.9804 9.26302C86.8392 9.75988 87.5109 10.4613 87.9957 11.3674C88.4804 12.2734 88.7228 13.3183 88.7228 14.5019C88.7228 15.6856 88.4804 16.7378 87.9957 17.6585C87.5109 18.5645 86.8392 19.2659 85.9804 19.7628C85.1356 20.2597 84.173 20.5081 83.0927 20.5081C81.5968 20.5081 80.4126 19.982 79.5401 18.9298V24.6072H76.9431V8.64925H79.4154V10.1837C79.8448 9.62835 80.3711 9.21187 80.9943 8.93421C81.6315 8.65656 82.3309 8.51773 83.0927 8.51773ZM82.8018 18.1626C83.7575 18.1626 84.54 17.8265 85.1494 17.1543C85.7727 16.4821 86.0843 15.598 86.0843 14.5019C86.0843 13.4059 85.7727 12.5218 85.1494 11.8496C84.54 11.1774 83.7575 10.8413 82.8018 10.8413C82.1785 10.8413 81.6176 10.9947 81.119 11.3016C80.6204 11.5939 80.2257 12.0177 79.9348 12.573C79.6439 13.1283 79.4985 13.7713 79.4985 14.5019C79.4985 15.2326 79.6439 15.8756 79.9348 16.4309C80.2257 16.9862 80.6204 17.4173 81.119 17.7242C81.6176 18.0165 82.1785 18.1626 82.8018 18.1626Z" fill="#273238"/>
<path d="M101.303 14.5677C101.303 14.7577 101.289 15.028 101.262 15.3788H92.5568C92.7092 16.2409 93.1039 16.9278 93.7411 17.4393C94.392 17.9361 95.1953 18.1845 96.151 18.1845C97.3698 18.1845 98.374 17.7607 99.1634 16.9132L100.555 18.601C100.057 19.2294 99.4266 19.7043 98.6648 20.0258C97.9031 20.3473 97.0443 20.5081 96.0887 20.5081C94.8698 20.5081 93.7964 20.2523 92.8685 19.7409C91.9405 19.2294 91.2203 18.5206 90.7078 17.6146C90.2092 16.694 89.9599 15.6564 89.9599 14.5019C89.9599 13.3621 90.2023 12.3392 90.6871 11.4331C91.1857 10.5125 91.8713 9.79641 92.7438 9.28494C93.6164 8.77347 94.5998 8.51773 95.6939 8.51773C96.7743 8.51773 97.7369 8.77347 98.5817 9.28494C99.4404 9.7818 100.105 10.4905 100.576 11.4112C101.061 12.3172 101.303 13.3694 101.303 14.5677ZM95.6939 10.7098C94.8629 10.7098 94.1566 10.9728 93.5748 11.4989C93.007 12.0103 92.6607 12.6972 92.5361 13.5594H98.831C98.7202 12.7118 98.3809 12.025 97.813 11.4989C97.2452 10.9728 96.5388 10.7098 95.6939 10.7098Z" fill="#273238"/>
<path d="M105.958 10.359C106.706 9.1315 108.022 8.51773 109.906 8.51773V11.1262C109.684 11.0824 109.483 11.0605 109.303 11.0605C108.292 11.0605 107.503 11.3747 106.935 12.003C106.367 12.6168 106.083 13.5082 106.083 14.6773V20.3546H103.486V8.64925H105.958V10.359Z" fill="#273238"/>
<path d="M116.321 24.0909V9.09091H118.849V10.8949H118.999C119.131 10.6297 119.318 10.348 119.56 10.0497C119.801 9.74669 120.128 9.48864 120.54 9.27557C120.952 9.05777 121.477 8.94886 122.116 8.94886C122.959 8.94886 123.719 9.1643 124.396 9.59517C125.078 10.0213 125.618 10.6534 126.016 11.4915C126.418 12.3248 126.619 13.3475 126.619 14.5597C126.619 15.7576 126.423 16.7756 126.03 17.6136C125.637 18.4517 125.102 19.0909 124.425 19.5312C123.748 19.9716 122.981 20.1918 122.124 20.1918C121.499 20.1918 120.98 20.0876 120.568 19.8793C120.156 19.6709 119.825 19.42 119.574 19.1264C119.328 18.8281 119.136 18.5464 118.999 18.2812H118.892V24.0909H116.321ZM118.842 14.5455C118.842 15.2509 118.942 15.8688 119.141 16.3991C119.344 16.9295 119.635 17.3437 120.014 17.642C120.398 17.9356 120.862 18.0824 121.406 18.0824C121.974 18.0824 122.45 17.9309 122.834 17.6278C123.217 17.3201 123.506 16.901 123.7 16.3707C123.899 15.8357 123.999 15.2273 123.999 14.5455C123.999 13.8684 123.902 13.267 123.707 12.7415C123.513 12.2159 123.224 11.804 122.841 11.5057C122.457 11.2074 121.979 11.0582 121.406 11.0582C120.857 11.0582 120.391 11.2027 120.007 11.4915C119.624 11.7803 119.332 12.1851 119.134 12.706C118.939 13.2268 118.842 13.84 118.842 14.5455ZM128.821 20V9.09091H131.392V20H128.821ZM130.114 7.54261C129.706 7.54261 129.356 7.40767 129.062 7.13778C128.769 6.86316 128.622 6.53409 128.622 6.15057C128.622 5.76231 128.769 5.43324 129.062 5.16335C129.356 4.88873 129.706 4.75142 130.114 4.75142C130.526 4.75142 130.876 4.88873 131.165 5.16335C131.458 5.43324 131.605 5.76231 131.605 6.15057C131.605 6.53409 131.458 6.86316 131.165 7.13778C130.876 7.40767 130.526 7.54261 130.114 7.54261ZM134.036 24.0909V9.09091H136.564V10.8949H136.713C136.846 10.6297 137.033 10.348 137.275 10.0497C137.516 9.74669 137.843 9.48864 138.255 9.27557C138.667 9.05777 139.192 8.94886 139.831 8.94886C140.674 8.94886 141.434 9.1643 142.111 9.59517C142.793 10.0213 143.333 10.6534 143.73 11.4915C144.133 12.3248 144.334 13.3475 144.334 14.5597C144.334 15.7576 144.138 16.7756 143.745 17.6136C143.352 18.4517 142.817 19.0909 142.14 19.5312C141.462 19.9716 140.695 20.1918 139.838 20.1918C139.213 20.1918 138.695 20.0876 138.283 19.8793C137.871 19.6709 137.54 19.42 137.289 19.1264C137.042 18.8281 136.851 18.5464 136.713 18.2812H136.607V24.0909H134.036ZM136.557 14.5455C136.557 15.2509 136.657 15.8688 136.855 16.3991C137.059 16.9295 137.35 17.3437 137.729 17.642C138.113 17.9356 138.577 18.0824 139.121 18.0824C139.689 18.0824 140.165 17.9309 140.549 17.6278C140.932 17.3201 141.221 16.901 141.415 16.3707C141.614 15.8357 141.713 15.2273 141.713 14.5455C141.713 13.8684 141.616 13.267 141.422 12.7415C141.228 12.2159 140.939 11.804 140.556 11.5057C140.172 11.2074 139.694 11.0582 139.121 11.0582C138.572 11.0582 138.105 11.2027 137.722 11.4915C137.338 11.7803 137.047 12.1851 136.848 12.706C136.654 13.2268 136.557 13.84 136.557 14.5455ZM151.365 20.2131C150.272 20.2131 149.327 19.9858 148.532 19.5312C147.741 19.072 147.132 18.4233 146.706 17.5852C146.28 16.7424 146.067 15.7505 146.067 14.6094C146.067 13.4872 146.28 12.5024 146.706 11.6548C147.137 10.8026 147.739 10.1397 148.51 9.66619C149.282 9.18797 150.189 8.94886 151.23 8.94886C151.903 8.94886 152.537 9.05777 153.134 9.27557C153.735 9.48864 154.266 9.82008 154.725 10.2699C155.189 10.7197 155.553 11.2926 155.819 11.9886C156.084 12.6799 156.216 13.5038 156.216 14.4602V15.2486H147.275V13.5156H153.752C153.747 13.0232 153.641 12.5852 153.432 12.2017C153.224 11.8134 152.933 11.508 152.559 11.2855C152.189 11.063 151.758 10.9517 151.266 10.9517C150.74 10.9517 150.279 11.0795 149.881 11.3352C149.483 11.5862 149.173 11.9176 148.951 12.3295C148.733 12.7367 148.622 13.1842 148.617 13.6719V15.1847C148.617 15.8191 148.733 16.3636 148.965 16.8182C149.197 17.268 149.521 17.6136 149.938 17.8551C150.355 18.0919 150.842 18.2102 151.401 18.2102C151.775 18.2102 152.114 18.1581 152.417 18.054C152.72 17.9451 152.982 17.7865 153.205 17.5781C153.427 17.3698 153.596 17.1117 153.709 16.804L156.11 17.0739C155.958 17.7083 155.669 18.2623 155.243 18.7358C154.822 19.2045 154.282 19.5691 153.624 19.8295C152.966 20.0852 152.213 20.2131 151.365 20.2131ZM160.962 5.45455V20H158.391V5.45455H160.962ZM163.606 20V9.09091H166.177V20H163.606ZM164.899 7.54261C164.492 7.54261 164.141 7.40767 163.848 7.13778C163.554 6.86316 163.407 6.53409 163.407 6.15057C163.407 5.76231 163.554 5.43324 163.848 5.16335C164.141 4.88873 164.492 4.75142 164.899 4.75142C165.311 4.75142 165.661 4.88873 165.95 5.16335C166.243 5.43324 166.39 5.76231 166.39 6.15057C166.39 6.53409 166.243 6.86316 165.95 7.13778C165.661 7.40767 165.311 7.54261 164.899 7.54261ZM171.392 13.608V20H168.821V9.09091H171.278V10.9446H171.406C171.657 10.3338 172.057 9.84848 172.607 9.48864C173.161 9.12879 173.845 8.94886 174.659 8.94886C175.412 8.94886 176.068 9.10985 176.626 9.43182C177.19 9.75379 177.625 10.2202 177.933 10.831C178.246 11.4418 178.4 12.1828 178.395 13.054V20H175.824V13.4517C175.824 12.7225 175.634 12.152 175.256 11.7401C174.882 11.3281 174.363 11.1222 173.7 11.1222C173.25 11.1222 172.85 11.2216 172.5 11.4205C172.154 11.6146 171.882 11.8963 171.683 12.2656C171.489 12.6349 171.392 13.0824 171.392 13.608ZM185.838 20.2131C184.744 20.2131 183.8 19.9858 183.004 19.5312C182.214 19.072 181.605 18.4233 181.179 17.5852C180.753 16.7424 180.54 15.7505 180.54 14.6094C180.54 13.4872 180.753 12.5024 181.179 11.6548C181.61 10.8026 182.211 10.1397 182.983 9.66619C183.755 9.18797 184.661 8.94886 185.703 8.94886C186.375 8.94886 187.01 9.05777 187.607 9.27557C188.208 9.48864 188.738 9.82008 189.197 10.2699C189.661 10.7197 190.026 11.2926 190.291 11.9886C190.556 12.6799 190.689 13.5038 190.689 14.4602V15.2486H181.747V13.5156H188.224C188.22 13.0232 188.113 12.5852 187.905 12.2017C187.696 11.8134 187.405 11.508 187.031 11.2855C186.662 11.063 186.231 10.9517 185.739 10.9517C185.213 10.9517 184.751 11.0795 184.354 11.3352C183.956 11.5862 183.646 11.9176 183.423 12.3295C183.205 12.7367 183.094 13.1842 183.089 13.6719V15.1847C183.089 15.8191 183.205 16.3636 183.438 16.8182C183.67 17.268 183.994 17.6136 184.411 17.8551C184.827 18.0919 185.315 18.2102 185.874 18.2102C186.248 18.2102 186.586 18.1581 186.889 18.054C187.192 17.9451 187.455 17.7865 187.678 17.5781C187.9 17.3698 188.068 17.1117 188.182 16.804L190.582 17.0739C190.431 17.7083 190.142 18.2623 189.716 18.7358C189.295 19.2045 188.755 19.5691 188.097 19.8295C187.438 20.0852 186.686 20.2131 185.838 20.2131Z" fill="#231C16"/>
<circle cx="2.65289" cy="2.65289" r="2.65289" transform="matrix(1 0 0 -1 7.57874 12.8892)" fill="#1EBEA5"/>
<circle cx="2.65289" cy="2.65289" r="2.65289" transform="matrix(1 0 0 -1 15.1602 12.8892)" fill="#273238"/>
<circle cx="2.65289" cy="2.65289" r="2.65289" transform="matrix(1 0 0 -1 22.7388 12.8892)" fill="#273238"/>
<circle cx="2.65289" cy="2.65289" r="2.65289" transform="matrix(1 0 0 -1 0 12.8892)" fill="#1EBEA5"/>
<circle cx="2.65289" cy="2.65289" r="2.65289" transform="matrix(1 0 0 -1 7.57874 5.30591)" fill="#1EBEA5"/>
<circle cx="2.65289" cy="2.65289" r="2.65289" transform="matrix(1 0 0 -1 15.1602 5.30591)" fill="#1EBEA5"/>
<circle cx="2.65289" cy="2.65289" r="2.65289" transform="matrix(1 0 0 -1 7.57874 20.4646)" fill="#1EBEA5"/>
<circle cx="2.65289" cy="2.65289" r="2.65289" transform="matrix(1 0 0 -1 15.1602 20.4646)" fill="#273238"/>
<circle cx="2.65289" cy="2.65289" r="2.65289" transform="matrix(1 0 0 -1 22.7388 20.4646)" fill="#273238"/>
<circle cx="2.65289" cy="2.65289" r="2.65289" transform="matrix(1 0 0 -1 0 20.4646)" fill="#1EBEA5"/>
<circle cx="2.65289" cy="2.65289" r="2.65289" transform="matrix(1 0 0 -1 7.57874 28.0442)" fill="#1EBEA5"/>
<circle cx="2.65289" cy="2.65289" r="2.65289" transform="matrix(1 0 0 -1 15.1602 28.0442)" fill="#273238"/>
</svg>
